<?xml version="1.0" encoding="utf-8"?>
<svg xmlns="http://www.w3.org/2000/svg" viewBox="14.462 -2.333 464.077 232.214" xmlns:bx="https://boxy-svg.com">
  <defs>
    <bx:export>
      <bx:file format="svg"/>
    </bx:export>
  </defs>
  <g id="Layer_x0020_1" transform="matrix(0.050222, 0, 0, 0.050222, 24.108647, -159.452873)" style="">
    <g id="Bank_x0020_BJB_x0020_Logo.cdr">
      <path class="fil0" d="M321 6829c0,24 5,49 9,72 39,137 153,232 298,232 207,0 331,-169 331,-419 0,-219 -113,-406 -325,-406 -135,0 -261,92 -302,243 -4,23 -11,50 -11,81l0 197zm-196 -1163l0 0 196 0 0 685 5 0c70,-122 196,-201 372,-201 270,0 461,226 459,557 0,390 -245,583 -489,583 -158,0 -284,-60 -365,-205l-7 0 -8 181 -172 0c5,-75 9,-185 9,-282l0 -1318z" style="fill: rgb(255, 255, 255);"/>
      <path class="fil0" d="M1955 6709c-217,-5 -462,34 -462,246 0,128 86,189 187,189 142,0 232,-90 264,-183 6,-20 11,-42 11,-63l0 -189zm191 295l0 0c0,95 5,187 18,262l-180 0 -16 -138 -6 0c-61,86 -179,162 -334,162 -221,0 -333,-155 -333,-313 0,-263 234,-408 655,-405l0 -23c0,-90 -24,-252 -247,-252 -102,0 -208,31 -284,81l-46 -131c91,-58 221,-97 359,-97 333,0 414,228 414,446l0 408z" style="fill: rgb(255, 255, 255);"/>
      <path class="fil0" d="M2451 6470c0,-113 -3,-205 -9,-295l175 0 12 180 4 0c54,-103 180,-205 361,-205 151,0 385,90 385,464l0 652 -198 0 0 -629c0,-176 -66,-322 -253,-322 -130,0 -232,92 -266,203 -9,24 -13,58 -13,92l0 656 -198 0 0 -796z" style="fill: rgb(255, 255, 255);"/>
      <path class="fil0" d="M3866 6675l4 0c27,-38 65,-85 97,-124l320 -376 239 0 -421 448 479 643 -241 0 -376 -523 -101 113 0 410 -196 0 0 -1600 196 0 0 1009z" style="fill: rgb(255, 255, 255);"/>
      <path class="fil0" d="M5770 7046c-159,0 -288,-171 -288,-382 0,-212 129,-383 288,-383 159,0 288,171 288,383 0,211 -129,382 -288,382zm448 -832l0 0c-7,-9 -15,-18 -22,-26 -13,-13 -27,-26 -43,-38 -82,-67 -181,-106 -288,-106 -115,0 -221,46 -307,123 -2,2 -4,4 -7,5 -3,2 -7,4 -12,2 -14,-3 -29,-18 -30,-40l0 -446c0,-28 -23,-50 -51,-50l-217 0c-28,0 -51,22 -51,50l0 16c0,1 0,1 0,2l0 51 0 1438c0,28 23,52 52,52l196 0c13,0 24,-5 33,-13 1,0 1,0 1,0 0,0 0,-1 1,-1 4,-4 7,-8 10,-13l0 0c3,-6 6,-13 6,-20 4,-32 26,-50 39,-45 5,1 9,4 14,7 5,3 9,6 13,9 14,9 72,50 118,70 23,10 95,35 180,35 85,0 145,-19 159,-23 14,-4 28,-8 42,-15 66,-28 119,-67 160,-117 40,-48 73,-106 100,-172 40,-87 62,-187 62,-294 0,-174 -60,-330 -158,-441z" style="fill: rgb(255, 255, 255);"/>
      <path class="fil0" d="M6941 6172c0,-3 0,-6 0,-9l0 -38c0,-28 -24,-52 -52,-52l-219 0c-28,0 -52,24 -52,52l0 1178c-1,30 -37,72 -79,82 -20,6 -39,8 -59,8 -20,-1 -33,7 -41,23 -3,8 -5,18 -6,30 -2,12 0,138 1,148 1,11 2,20 5,27 9,14 25,23 48,27 7,4 152,4 250,-20 38,-9 69,-27 95,-47 25,-20 48,-44 68,-75 22,-36 35,-81 37,-136 1,-16 4,-60 4,-65l0 -1070c0,-6 0,-12 0,-18 1,-15 1,-30 0,-45z" style="fill: rgb(255, 255, 255);"/>
      <path class="fil0" d="M7778 7046c-159,0 -288,-171 -288,-382 0,-212 129,-383 288,-383 159,0 287,171 287,383 0,211 -128,382 -287,382zm448 -832l0 0c-8,-9 -15,-18 -23,-26 -13,-13 -27,-26 -42,-38 -82,-67 -181,-106 -288,-106 -116,0 -222,46 -307,123 -3,2 -5,4 -8,5 -3,2 -7,4 -12,2 -14,-3 -29,-18 -29,-40l0 -446c0,-28 -23,-50 -51,-50l-217 0c-29,0 -51,22 -51,50l0 16c0,1 -1,1 -1,2l0 51 1 1438c0,28 23,52 51,52l197 0c12,0 24,-5 33,-13 0,0 0,0 0,0 1,0 1,-1 1,-1 4,-4 8,-8 10,-13l1 0c3,-6 5,-13 6,-20 4,-32 25,-50 39,-45 4,1 9,4 13,7 5,3 9,6 14,9 13,9 72,50 117,70 23,10 96,35 181,35 84,0 144,-19 158,-23 15,-4 29,-8 42,-15 66,-28 120,-67 160,-117 40,-48 73,-106 100,-172 40,-87 63,-187 63,-294 0,-174 -61,-330 -158,-441z" style="fill: rgb(255, 255, 255);"/>
      <path class="fil0" d="M6776 5651c-31,0 -59,7 -82,21 -23,14 -41,33 -54,56 -13,24 -20,50 -20,78 0,28 7,53 19,76 12,23 30,42 52,56 22,13 49,21 79,21 34,0 63,-8 86,-21 24,-14 42,-33 54,-56 12,-23 18,-48 18,-76 0,-28 -6,-54 -19,-78 -12,-23 -30,-42 -52,-56 -23,-14 -50,-21 -81,-21z" style="fill: rgb(255, 255, 255);"/>
      <path class="fil1" d="M5124 3350c-271,462 -1061,811 -2317,1058 10,-96 20,-191 30,-286 881,-85 1622,-374 2287,-772zm-108 458c-271,463 -1060,811 -2316,1058 9,-95 19,-191 29,-286 882,-85 1622,-374 2287,-772zm-100 401c-271,463 -1060,811 -2317,1058 10,-95 20,-190 30,-286 882,-85 1622,-374 2287,-772z" style="fill: rgb(255, 255, 255);"/>
    </g>
  </g>
</svg>